<svg width="108" height="33" viewBox="0 0 108 33" fill="none" xmlns="http://www.w3.org/2000/svg">
<path d="M94.6301 2.13193H81.4473V7.28544H90.6299V32.1857H95.0611V7.2896H95.539C102.104 7.2896 106.687 6.04646 107.667 2.51592C107.703 2.38608 107.741 2.13606 107.741 2.13606L94.6301 2.13193Z" fill="#1D3526"/>
<path d="M33.042 7.71643V32.1885H52.2997V27.0349H37.4731V18.9945H47.5882V14.9584H37.4731V7.7178H33.042V7.71643Z" fill="#1D3526"/>
<path d="M73.0574 21.6977C74.8494 20.857 76.3547 19.5081 77.3862 17.8187C78.4176 16.1293 78.9298 14.174 78.8588 12.1959C78.8588 6.64316 74.976 2.1264 70.2024 2.1264H60.9865V2.13332H58.5195V32.1871H62.9507V7.31447H70.2024C71.3702 7.49176 72.4358 8.08182 73.2058 8.97755C73.9758 9.87329 74.3992 11.0154 74.3992 12.1966C74.3992 13.3778 73.9758 14.5199 73.2058 15.4156C72.4358 16.3114 71.3702 16.9014 70.2024 17.0787H69.1401L72.9621 21.583L73.0574 21.6977Z" fill="#1D3526"/>
<path d="M65.3389 20.6147L66.0834 21.4905L65.3389 20.6147Z" fill="black"/>
<path d="M68.3848 17.2887L68.5767 17.0787L68.3848 17.2887Z" fill="black"/>
<path d="M72.6333 21.8593L68.5779 17.0801L68.3859 17.2887L65.3374 20.6148L66.0819 21.4905L66.7422 22.2668L69.6428 25.673C73.4593 30.2643 76.6666 32.9095 79.2441 32.9095C79.8872 32.9127 80.5183 32.7356 81.066 32.3984C81.165 32.3356 81.2604 32.2673 81.3519 32.194L72.6333 21.8593Z" fill="#0C6368"/>
<path d="M5.64577 2.13193H0.258789L11.7593 31.6359L14.5218 24.9022C11.3283 16.7196 6.48006 4.28395 5.64577 2.13193Z" fill="#1D3526"/>
<path d="M29.3014 0.909515C25.8344 0.909515 23.0926 4.87791 20.185 12.0564L18.9419 15.1187C18.672 15.7706 18.3912 16.4576 18.0993 17.1795L16.4418 21.2833L14.9431 24.9934L11.9844 32.2188H17.4321L30.0611 1.01587C29.9459 0.978789 29.8282 0.950172 29.7089 0.930234C29.5777 0.91504 29.4395 0.909515 29.3014 0.909515Z" fill="#0C6368"/>
<path d="M41.1611 7.28959H41.6391C46.9887 7.28959 52.7832 6.04645 53.7653 2.51591C53.8012 2.38745 53.8398 2.13605 53.8398 2.13605H37.6237L33.042 7.28959H41.1611Z" fill="#0C6368"/>
</svg>
